<?xml version="1.0" encoding="utf-8"?>
<!-- Generator: Adobe Illustrator 16.0.0, SVG Export Plug-In . SVG Version: 6.00 Build 0)  -->
<!DOCTYPE svg PUBLIC "-//W3C//DTD SVG 1.1//EN" "http://www.w3.org/Graphics/SVG/1.1/DTD/svg11.dtd">
<svg version="1.1" id="Layer_1" xmlns="http://www.w3.org/2000/svg" xmlns:xlink="http://www.w3.org/1999/xlink" x="0px" y="0px"
	 width="178px" height="27px" viewBox="0 0 178 27" enable-background="new 0 0 178 27" xml:space="preserve">
<path fill="#FFFFFF" d="M27.619,1.058l-4.69,24.754h6.827l3.468-22.466h0.141l3.376,22.466h6.801L38.876,1.058H27.619z
	 M65.863,1.058l-3.122,18.927h-0.144L59.48,1.058H49.154l-0.562,24.754h6.337l0.157-22.255h0.141l4.23,22.255h6.424l4.23-22.255
	h0.128l0.174,22.255h6.324L76.18,1.058H65.863z M7.249,7.429C7.123,6.93,7.156,6.405,7.218,6.127
	c0.174-0.791,0.729-1.664,2.314-1.664c1.478,0,2.353,0.894,2.353,2.249v1.526h6.314V6.501c0-5.394-4.949-6.234-8.536-6.234
	c-0.792,0-1.547,0.055-2.273,0.158L6.089,0.664c0,0-0.592,0.11-1.465,0.489C3.801,1.517,3.259,1.875,3.259,1.875
	C2,2.741,1.109,3.988,0.814,5.755C0.632,6.865,0.601,7.858,0.868,9.101c1.111,5.062,10.095,6.525,11.398,9.728
	c0.249,0.597,0.169,1.365,0.059,1.834c-0.215,0.82-0.783,1.661-2.47,1.661c-1.581,0-2.55-0.891-2.55-2.243v-2.399H0.517
	l-0.002,1.915c0,5.518,4.441,7.188,9.202,7.188c4.58,0,8.343-1.536,8.944-5.654c0.311-2.146,0.077-3.543-0.023-4.071
	C17.567,11.881,7.962,10.331,7.249,7.429z M89.587,7.495c-0.115-0.492-0.087-1.019-0.023-1.28c0.177-0.793,0.721-1.646,2.291-1.646
	c1.467,0,2.319,0.876,2.319,2.213v1.514h6.265V6.574c0-5.338-4.908-6.169-8.451-6.169c-4.454,0-8.107,1.436-8.761,5.436
	c-0.185,1.099-0.208,2.076,0.059,3.305c1.083,5.007,9.985,6.465,11.278,9.637c0.251,0.592,0.172,1.347,0.051,1.807
	c-0.205,0.828-0.772,1.649-2.447,1.649c-1.56,0-2.509-0.886-2.509-2.221l-0.008-2.374h-6.719l-0.013,1.895
	c0,5.466,4.405,7.112,9.11,7.112c4.533,0,8.274-1.511,8.861-5.602c0.305-2.118,0.087-3.498-0.023-4.018
	C99.808,11.896,90.3,10.371,89.587,7.495z M147.117,20.489h-0.134l-5.824-19.432h-9.4v24.499h6.229L137.64,5.452h0.136l6.255,20.104
	h9.002V1.058h-6.26L147.117,20.489z M124.704,1.045H118.3v18.318c0.005,0.329-0.005,0.677-0.056,0.954
	c-0.121,0.604-0.667,1.794-2.432,1.794c-1.76,0-2.294-1.19-2.43-1.794c-0.051-0.276-0.059-0.625-0.059-0.954V1.045h-6.391v17.758
	c-0.018,0.459,0.023,1.39,0.049,1.626c0.441,4.623,4.182,6.124,8.831,6.124c4.656,0,8.392-1.501,8.841-6.124
	c0.023-0.236,0.066-1.167,0.051-1.626V1.045z M168.657,11.904v3.616h2.602v3.594c0.008,0.311-0.01,0.657-0.062,0.938
	c-0.11,0.663-0.751,1.794-2.586,1.794c-1.836,0-2.471-1.132-2.581-1.794c-0.057-0.281-0.072-0.627-0.062-0.938V7.788
	c0-0.396,0.021-0.838,0.103-1.162c0.144-0.62,0.672-1.807,2.52-1.807c1.929,0,2.414,1.26,2.524,1.807
	c0.077,0.349,0.082,0.946,0.082,0.946l-0.005,1.383h6.388V8.127c0,0,0.026-0.841-0.056-1.628c-0.462-4.641-4.392-6.119-8.88-6.119
	c-4.497,0-8.33,1.488-8.895,6.119c-0.043,0.412-0.103,1.187-0.103,1.628v10.42c0,0.466,0.013,0.81,0.083,1.633
	c0.431,4.5,4.417,6.108,8.915,6.108c1.199,0,2.361-0.121,3.436-0.379c0,0,0.754-0.183,1.511-0.509
	c0.757-0.327,1.352-0.72,1.352-0.72c1.421-0.969,2.412-2.412,2.602-4.5c0.072-0.823,0.087-1.167,0.092-1.633v-6.644H168.657z"/>
</svg>
